<svg width="32" height="18" viewBox="0 0 32 18" fill="none" xmlns="http://www.w3.org/2000/svg">
<path d="M17.8096 16.9781L31.0488 3.72634C31.4565 3.31827 31.6855 2.76482 31.6855 2.18773C31.6855 1.61064 31.4565 1.05719 31.0488 0.649126C30.6411 0.241063 30.0882 0.0118148 29.5116 0.0118148C28.9351 0.0118147 28.3821 0.241062 27.9744 0.649126L16.2727 12.3624L4.56964 0.649125C4.36834 0.444528 4.12857 0.281837 3.86416 0.17043C3.59974 0.0590237 3.31591 0.00110535 3.02902 1.44526e-05C2.74213 -0.00107645 2.45787 0.0546817 2.19262 0.164074C1.92736 0.273467 1.68637 0.43433 1.48352 0.63739C1.28067 0.84045 1.11999 1.08169 1.01073 1.3472C0.901476 1.61271 0.845806 1.89725 0.846935 2.18439C0.848064 2.47154 0.905968 2.75563 1.01731 3.02027C1.12865 3.28491 1.29122 3.52488 1.49566 3.72634L14.7352 16.9781C14.9371 17.1802 15.1767 17.3405 15.4405 17.4499C15.7042 17.5593 15.9869 17.6156 16.2724 17.6156C16.5579 17.6156 16.8407 17.5593 17.1044 17.4499C17.3682 17.3405 17.6078 17.1802 17.8096 16.9781Z" fill="#4C2CFF"/>
</svg>
