<svg width="32" height="32" viewBox="0 0 32 32" fill="none" xmlns="http://www.w3.org/2000/svg">
<circle cx="16" cy="16" r="16" fill="#4C2CFF"/>
<path d="M10.8289 14.856H19.8769V17.28H10.8289V14.856ZM10.6849 21.912C11.2609 21.432 11.7329 20.952 12.1009 20.472C12.4849 19.976 12.7729 19.472 12.9649 18.96C13.1569 18.448 13.2529 17.944 13.2529 17.448C13.2529 16.856 13.1489 16.304 12.9409 15.792C12.7489 15.264 12.5249 14.752 12.2689 14.256C12.0129 13.744 11.7809 13.232 11.5729 12.72C11.3809 12.208 11.2849 11.672 11.2849 11.112C11.2849 10.312 11.5009 9.592 11.9329 8.952C12.3809 8.296 12.9809 7.784 13.7329 7.416C14.4849 7.032 15.3169 6.84 16.2289 6.84C17.1889 6.84 18.1089 7.064 18.9889 7.512C19.8689 7.96 20.6049 8.576 21.1969 9.36L19.5169 11.328C19.1329 10.784 18.6289 10.336 18.0049 9.984C17.3809 9.632 16.7729 9.456 16.1809 9.456C15.7969 9.456 15.4529 9.544 15.1489 9.72C14.8449 9.88 14.6049 10.112 14.4289 10.416C14.2529 10.72 14.1649 11.056 14.1649 11.424C14.1649 11.856 14.2529 12.288 14.4289 12.72C14.6209 13.136 14.8369 13.576 15.0769 14.04C15.3329 14.488 15.5489 14.984 15.7249 15.528C15.9169 16.072 16.0129 16.664 16.0129 17.304C16.0129 17.784 15.9489 18.248 15.8209 18.696C15.6929 19.144 15.4769 19.6 15.1729 20.064C14.8689 20.512 14.4689 20.992 13.9729 21.504C14.3249 21.408 14.6449 21.336 14.9329 21.288C15.2369 21.24 15.5249 21.216 15.7969 21.216C16.1969 21.216 16.5729 21.248 16.9249 21.312C17.2929 21.376 17.6529 21.448 18.0049 21.528C18.3569 21.592 18.7089 21.624 19.0609 21.624C19.3489 21.624 19.6289 21.592 19.9009 21.528C20.1889 21.464 20.5089 21.368 20.8609 21.24L21.6529 23.64C21.2689 23.864 20.8289 24.04 20.3329 24.168C19.8369 24.296 19.3569 24.36 18.8929 24.36C18.4129 24.36 17.9249 24.296 17.4289 24.168C16.9489 24.056 16.4609 23.944 15.9649 23.832C15.4689 23.72 14.9649 23.664 14.4529 23.664C14.0369 23.664 13.5489 23.72 12.9889 23.832C12.4289 23.928 11.8929 24.048 11.3809 24.192L10.6849 21.912Z" fill="#F5F5F7"/>
</svg>
