<svg width="42" height="40" viewBox="0 0 42 40" fill="none" xmlns="http://www.w3.org/2000/svg">
<path d="M18.944 1.8541C19.5427 0.0114837 22.1496 0.0114808 22.7483 1.8541L26.1999 12.4773C26.4677 13.3013 27.2356 13.8593 28.1021 13.8593H39.2719C41.2094 13.8593 42.0149 16.3385 40.4475 17.4773L31.4109 24.0428C30.7099 24.5521 30.4166 25.4548 30.6843 26.2788L34.136 36.902C34.7347 38.7446 32.6258 40.2769 31.0583 39.1381L22.0217 32.5726C21.3207 32.0633 20.3716 32.0633 19.6706 32.5726L10.634 39.1381C9.06654 40.2769 6.95757 38.7446 7.55628 36.902L11.008 26.2788C11.2757 25.4548 10.9824 24.5521 10.2814 24.0428L1.2448 17.4773C-0.322628 16.3385 0.482922 13.8593 2.42037 13.8593H13.5902C14.4567 13.8593 15.2246 13.3013 15.4924 12.4773L18.944 1.8541Z" fill="#4C2CFF"/>
</svg>
